#!OML:ASF E:\motion texture\Top Level 1\Subject 1\Session 1\male.ASF
:FULLY-SPECIFIED
:DEGREES
308
root -4.09053 18.149 6.84621 166.028 -73.9097 -157.324
lowerback 0.372344 -0.322406 6.78833
upperback -2.41922 -0.579548 8.66474
thorax -2.68904 -0.531649 5.25398
lowerneck -19.5147 -2.21108 -4.58633
upperneck 9.43845 -2.43994 4.53549
head 6.13565 -0.982436 1.93484
rclavicle -3.10104e-014 0
rhumerus 48.0101 3.61539 -76.7073
rradius 54.7145
rwrist 11.327
rhand -25.6026 -16.763
rfingers 7.12502
rthumb 0.929596 -46.7407
lclavicle -3.10104e-014 0
lhumerus 67.2113 -19.5907 67.9568
lradius 38.7805
lwrist -28.8662
lhand -25.0097 13.0072
lfingers 7.12502
lthumb 1.50219 42.9817
rfemur -9.14763 3.70629 26.5815
rtibia 24.214
rfoot -10.7496 -10.8458
rtoes -1.04848
lfemur -29.8485 1.81796 -11.7639
ltibia 22.0337
lfoot -6.17737 10.0543
ltoes -14.8377
309
root -4.24833 18.1289 6.841 166.123 -73.6428 -157.459
lowerback 0.339386 -0.371859 6.72683
upperback -2.37524 -0.655343 8.66027
thorax -2.62038 -0.567052 5.28343
lowerneck -19.4867 -2.17486 -4.5814
upperneck 9.59721 -2.40487 4.58703
head 6.18133 -0.960387 1.95516
rclavicle 2.27608e-014 3.02153e-014
rhumerus 46.7157 3.35838 -77.1592
rradius 55.391
rwrist 10.8951
rhand -25.5 -16.9328
rfingers 7.12502
rthumb 1.02867 -46.9101
lclavicle 2.27608e-014 3.02153e-014
lhumerus 66.7451 -20.5009 67.7797
lradius 38.9981
lwrist -28.9282
lhand -25.3923 13.0229
lfingers 7.12502
lthumb 1.1327 42.9996
rfemur -9.07384 3.55024 26.4999
rtibia 25.0905
rfoot -10.869 -10.6296
rtoes -1.91076
lfemur -29.836 1.67329 -11.6735
ltibia 21.2752
lfoot -6.01378 10.2086
ltoes -14.3763
310
root -4.40709 18.1083 6.83557 166.227 -73.3884 -157.619
lowerback 0.311229 -0.425951 6.65664
upperback -2.32812 -0.736162 8.64573
thorax -2.55084 -0.604447 5.30694
lowerneck -19.4579 -2.13506 -4.57283
upperneck 9.76067 -2.36572 4.63472
head 6.22811 -0.936539 1.97417
rclavicle -7.95139e-016 -1.27222e-014
rhumerus 45.3474 3.08781 -77.5904
rradius 56.1282
rwrist 10.412
rhand -25.3321 -17.1207
rfingers 7.12502
rthumb 1.19082 -47.0971
lclavicle -7.95139e-016 -1.27222e-014
lhumerus 66.202 -21.4268 67.6427
lradius 39.2717
lwrist -29.0587
lhand -25.8226 13.0769
lfingers 7.12502
lthumb 0.717126 43.0555
rfemur -9.03449 3.38906 26.3963
rtibia 26.0362
rfoot -10.9312 -10.4142
rtoes -2.73645
lfemur -29.8013 1.54701 -11.6087
ltibia 20.6215
lfoot -5.84019 10.3327
ltoes -13.862
311
root -4.56665 18.0873 6.82997 166.348 -73.148 -157.81
lowerback 0.288406 -0.484612 6.57628
upperback -2.27825 -0.821736 8.6205
thorax -2.48113 -0.64366 5.32471
lowerneck -19.4302 -2.09097 -4.56144
upperneck 9.929 -2.32145 4.67963
head 6.27631 -0.91031 1.99247
rclavicle 5.83433e-014 6.04305e-014
rhumerus 43.9073 2.80363 -78.001
rradius 56.9206
rwrist 9.87365
rhand -25.087 -17.3148
rfingers 7.12502
rthumb 1.42756 -47.2897
lclavicle 5.83433e-014 6.04305e-014
lhumerus 65.5817 -22.367 67.547
lradius 39.603
lwrist -29.2521
lhand -26.287 13.1831
lfingers 7.12502
lthumb 0.268579 43.1627
rfemur -9.03274 3.22312 26.2684
rtibia 27.0513
rfoot -10.926 -10.2055
rtoes -3.50694
lfemur -29.7474 1.44147 -11.5751
ltibia 20.0753
lfoot -5.65942 10.4233
ltoes -13.2994
312
root -4.72707 18.0661 6.82419 166.483 -72.92 -158.029
lowerback 0.27053 -0.547296 6.48775
upperback -2.22433 -0.911542 8.5851
thorax -2.40973 -0.684487 5.33613
lowerneck -19.4035 -2.04226 -4.54556
upperneck 10.1003 -2.27162 4.71955
head 6.32526 -0.881628 2.00912
rclavicle -7.95139e-016 -2.8625e-014
rhumerus 42.3996 2.50679 -78.3899
rradius 57.7644
rwrist 9.27408
rhand -24.7551 -17.5108
rfingers 7.12502
rthumb 1.74811 -47.4834
lclavicle -7.95139e-016 -2.8625e-014
lhumerus 64.8835 -23.3164 67.4956
lradius 39.9859
lwrist -29.5217
lhand -26.7918 13.3282
lfingers 7.12502
lthumb -0.21902 43.3079
rfemur -9.06836 3.05529 26.1184
rtibia 28.1343
rfoot -10.8507 -10.0101
rtoes -4.22358
lfemur -29.6737 1.35894 -11.5731
ltibia 19.6362
lfoot -5.4769 10.4784
ltoes -12.6791
313
root -4.88836 18.0447 6.81828 166.638 -72.7034 -158.284
lowerback 0.258049 -0.613691 6.39067
upperback -2.16675 -1.00507 8.53942
thorax -2.33732 -0.726685 5.34134
lowerneck -19.3747 -1.98865 -4.52298
upperneck 10.2731 -2.21586 4.75033
head 6.37386 -0.850618 2.02246
rclavicle -1.82882e-014 3.97569e-014
rhumerus 40.8255 2.20098 -78.7552
rradius 58.6527
rwrist 8.61041
rhand -24.3389 -17.699
rfingers 7.12502
rthumb 2.15008 -47.668
lclavicle -1.82882e-014 3.97569e-014
lhumerus 64.1084 -24.2722 67.4801
lradius 40.4214
lwrist -29.8602
lhand -27.3361 13.5126
lfingers 7.12502
lthumb -0.744718 43.4911
rfemur -9.14251 2.88674 25.9446
rtibia 29.2844
rfoot -10.7097 -9.83009
rtoes -4.88694
lfemur -29.5796 1.30073 -11.6063
ltibia 19.3024
lfoot -5.29378 10.496
ltoes -12.0127
314
root -5.05035 18.0234 6.81225 166.814 -72.4997 -158.573
lowerback 0.251043 -0.683949 6.28488
upperback -2.10571 -1.1025 8.48371
thorax -2.26414 -0.770368 5.34071
lowerneck -19.3453 -1.92972 -4.49393
upperneck 10.4459 -2.15353 4.7727
head 6.42187 -0.816921 2.0328
rclavicle -2.23633e-014 -5.24792e-014
rhumerus 39.189 1.88867 -79.0948
rradius 59.5813
rwrist 7.86862
rhand -23.8364 -17.8723
rfingers 7.12502
rthumb 2.63532 -47.8358
lclavicle -2.23633e-014 -5.24792e-014
lhumerus 63.2553 -25.2311 67.5068
lradius 40.9044
lwrist -30.2697
lhand -27.9153 13.7276
lfingers 7.12502
lthumb -1.30416 43.7033
rfemur -9.2583 2.71644 25.7476
rtibia 30.4999
rfoot -10.5054 -9.66855
rtoes -5.48277
lfemur -29.4676 1.2663 -11.6759
ltibia 19.0718
lfoot -5.11292 10.4741
ltoes -11.2982
315
root -5.21298 18.0023 6.80611 167.01 -72.3082 -158.896
lowerback 0.25091 -0.757922 6.1711
upperback -2.04231 -1.20343 8.41861
thorax -2.19218 -0.815416 5.33467
lowerneck -19.3146 -1.86456 -4.45842
upperneck 10.6213 -2.08345 4.78665
head 6.47002 -0.779961 2.04031
rclavicle 8.57756e-014 -5.88403e-014
rhumerus 37.4915 1.57441 -79.4066
rradius 60.5461
rwrist 7.04161
rhand -23.2451 -18.0339
rfingers 7.12502
rthumb 3.20642 -47.9895
lclavicle 8.57756e-014 -5.88403e-014
lhumerus 62.3243 -26.1914 67.5717
lradius 41.4337
lwrist -30.7429
lhand -28.5244 13.9809
lfingers 7.12502
lthumb -1.89241 43.9522
rfemur -9.41711 2.54615 25.5286
rtibia 31.7786
rfoot -10.2369 -9.52982
rtoes -6.01121
lfemur -29.3381 1.25654 -11.7821
ltibia 18.9419
lfoot -4.93769 10.4132
ltoes -10.5443
316
root -5.37611 17.9816 6.79988 167.226 -72.1294 -159.25
lowerback 0.257044 -0.835183 6.05017
upperback -1.97652 -1.30744 8.34472
thorax -2.12108 -0.861669 5.32336
lowerneck -19.2805 -1.79418 -4.41613
upperneck 10.7931 -2.0067 4.7908
head 6.51594 -0.740426 2.04431
rclavicle -6.55989e-015 9.54166e-015
rhumerus 35.7369 1.26155 -79.6875
rradius 61.5423
rwrist 6.12777
rhand -22.5685 -18.1849
rfingers 7.12502
rthumb 3.85982 -48.1296
lclavicle -6.55989e-015 9.54166e-015
lhumerus 61.3177 -27.1508 67.6739
lradius 42.0058
lwrist -31.2726
lhand -29.1636 14.2598
lfingers 7.12502
lthumb -2.5097 44.2248
rfemur -9.62149 2.37693 25.2898
rtibia 33.1169
rfoot -9.90295 -9.41551
rtoes -6.4669
lfemur -29.1916 1.26969 -11.9239
ltibia 18.9071
lfoot -4.77085 10.314
ltoes -9.75687
317
root -5.53964 17.9614 6.79358 167.461 -71.9644 -159.635
lowerback 0.269901 -0.916119 5.92241
upperback -1.90838 -1.41506 8.2625
thorax -2.05113 -0.909427 5.30721
lowerneck -19.2487 -1.71746 -4.3707
upperneck 10.9672 -1.9214 4.78943
head 6.56252 -0.697107 2.04703
rclavicle -2.94201e-014 2.8625e-014
rhumerus 33.9292 0.953492 -79.9385
rradius 62.5669
rwrist 5.13126
rhand -21.7985 -18.3345
rfingers 7.12502
rthumb 4.60333 -48.2645
lclavicle -2.94201e-014 2.8625e-014
lhumerus 60.2367 -28.1064 67.8167
lradius 42.615
lwrist -31.858
lhand -29.8286 14.568
lfingers 7.12502
lthumb -3.1519 44.5245
rfemur -9.8722 2.20864 25.0319
rtibia 34.5099
rfoot -9.50062 -9.32692
rtoes -6.83233
lfemur -29.0291 1.30404 -12.1015
ltibia 18.964
lfoot -4.61632 10.1767
ltoes -8.94269
318
root -5.70348 17.9419 6.78719 167.719 -71.8103 -160.053
lowerback 0.288962 -0.998669 5.78768
upperback -1.83809 -1.52364 8.17204
thorax -1.98238 -0.957388 5.28632
lowerneck -19.2134 -1.63636 -4.31995
upperneck 11.1378 -1.83042 4.78028
head 6.60704 -0.651587 2.04701
rclavicle 4.68138e-014 -1.59028e-015
rhumerus 32.0716 0.65083 -80.1594
rradius 63.617
rwrist 4.05407
rhand -20.939 -18.495
rfingers 7.12502
rthumb 5.43325 -48.4054
lclavicle 4.68138e-014 -1.59028e-015
lhumerus 59.0843 -29.0591 67.9942
lradius 43.2607
lwrist -32.4921
lhand -30.5178 14.9063
lfingers 7.12502
lthumb -3.81751 44.8518
rfemur -10.1701 2.04381 24.7564
rtibia 35.952
rfoot -9.0315 -9.26364
rtoes -7.10817
lfemur -28.8475 1.35706 -12.3122
ltibia 19.1018
lfoot -4.47372 10.0072
ltoes -8.11171
319
root -5.86749 17.9231 6.78074 168 -71.6674 -160.503
lowerback 0.315561 -1.08283 5.64678
upperback -1.76676 -1.63302 8.07403
thorax -1.91676 -1.00555 5.26114
lowerneck -19.1753 -1.55043 -4.2659
upperneck 11.3068 -1.73274 4.76424
head 6.65023 -0.603368 2.045
rclavicle 3.79679e-014 6.36111e-014
rhumerus 30.1669 0.360233 -80.3472
rradius 64.6839
rwrist 2.91199
rhand -20.0078 -18.6752
rfingers 7.12502
rthumb 6.33228 -48.5606
lclavicle 3.79679e-014 6.36111e-014
lhumerus 57.8606 -30.0069 68.2091
lradius 43.9391
lwrist -33.1721
lhand -31.2218 15.275
lfingers 7.12502
lthumb -4.4973 45.2073
rfemur -10.516 1.88249 24.4642
rtibia 37.4378
rfoot -8.49465 -9.22653
rtoes -7.29361
lfemur -28.6473 1.42701 -12.5553
ltibia 19.3151
lfoot -4.35023 9.80769
ltoes -7.26013
320
root -6.03157 17.9054 6.77422 168.307 -71.5367 -160.987
lowerback 0.347403 -1.1684 5.49874
upperback -1.69152 -1.74352 7.96873
thorax -1.84992 -1.05403 5.23238
lowerneck -19.1428 -1.45924 -4.20804
upperneck 11.4754 -1.62755 4.74099
head 6.69385 -0.551977 2.04091
rclavicle 2.20651e-014 1.01778e-013
rhumerus 28.2255 0.0828099 -80.5043
rradius 65.7715
rwrist 1.68539
rhand -18.9854 -18.8957
rfingers 7.12502
rthumb 7.31927 -48.7491
lclavicle 2.20651e-014 1.01778e-013
lhumerus 56.5739 -30.9461 68.4582
lradius 44.6452
lwrist -33.8966
lhand -31.9413 15.6708
lfingers 7.12502
lthumb -5.19204 45.5872
rfemur -10.9101 1.72561 24.1563
rtibia 38.9611
rfoot -7.89503 -9.21568
rtoes -7.38462
lfemur -28.4281 1.51016 -12.8296
ltibia 19.596
lfoot -4.25034 9.58127
ltoes -6.39299
321
root -6.19554 17.8887 6.76762 168.637 -71.4175 -161.502
lowerback 0.385934 -1.2549 5.3445
upperback -1.61445 -1.85426 7.85711
thorax -1.7849 -1.10249 5.20066
lowerneck -19.1117 -1.36339 -4.14947
upperneck 11.6424 -1.51547 4.71381
head 6.73692 -0.497619 2.03622
rclavicle -3.06128e-014 4.13472e-014
rhumerus 26.2495 -0.176143 -80.6302
rradius 66.8706
rwrist 0.392527
rhand -17.868 -19.179
rfingers 7.12502
rthumb 8.39773 -48.9921
lclavicle -3.06128e-014 4.13472e-014
lhumerus 55.2254 -31.8798 68.7382
lradius 45.3809
lwrist -34.6506
lhand -32.6555 16.1194
lfingers 7.12502
lthumb -5.88163 46.0178
rfemur -11.3522 1.57377 23.8352
rtibia 40.5143
rfoot -7.23479 -9.22922
rtoes -7.38555
lfemur -28.1888 1.6032 -13.1318
ltibia 19.9346
lfoot -4.1766 9.33297
ltoes -5.51678
